<?xml version="1.0" encoding="utf-8"?>
<!-- Generator: Adobe Illustrator 22.1.0, SVG Export Plug-In . SVG Version: 6.00 Build 0)  -->
<svg version="1.1" id="Livello_1" xmlns="http://www.w3.org/2000/svg" xmlns:xlink="http://www.w3.org/1999/xlink" x="0px" y="0px"
	 viewBox="0 0 595.3 109.1" style="enable-background:new 0 0 595.3 109.1;" xml:space="preserve">
<style type="text/css">
	.st0{fill:#0EA0C4;}
</style>
<path class="st0" d="M0,6.3C0,3.3,2.3,1,5.3,1c2.8,0,5.3,2.3,5.3,5.3v70.9c0,3-2.5,5.3-5.3,5.3c-3,0-5.3-2.3-5.3-5.3V6.3z"/>
<path class="st0" d="M64.5,29.5c9.5,0,17,7.6,17,17v30.9c0,2.9-2.2,5.1-5.1,5.1c-2.8,0-5-2.2-5-5.1V46.5c0-3.8-3.1-6.8-6.9-6.8h-31
	v37.7c0,2.9-2.4,5.1-5.1,5.1c-2.9,0-5.1-2.2-5.1-5.1V34.6c0-2.9,2.1-5,5-5.1H64.5z"/>
<path class="st0" d="M148.2,29c0.8,0,1.7,0.2,2.5,0.6c1.6,0.9,2.6,2.6,2.6,4.5c0,0.8-0.2,1.7-0.7,2.5l-23.8,43.2
	c-1,1.6-2.6,2.6-4.5,2.6h-5.1c-1.8,0-3.5-1-4.4-2.6L90.6,36.6C90.2,35.8,90,35,90,34.2c0-1.8,0.9-3.6,2.5-4.6
	c0.7-0.4,1.6-0.6,2.4-0.6c1.8,0,3.7,0.9,4.6,2.6l22.1,39.6c0.1-0.3,0.3-0.5,0.5-0.9c2.2-4,7.8-14,21.6-38.7
	C144.7,29.9,146.4,29,148.2,29z"/>
<path class="st0" d="M205.1,29.5c9.3,0,16.9,7.5,16.9,16.9v10.7c0,2.9-2.2,5.1-5.1,5.1h-47.5v3.4c0,3.7,3.1,6.8,6.8,6.8h38.9
	c2.6,0,5.1,2.1,5.1,5c0,2.9-2.4,5.1-5.1,5.1h-38.8c-9.4,0-16.9-7.5-16.9-16.9V46.4c0-9.4,7.5-16.9,16.9-16.9H205.1z M169.5,52.1
	h42.5v-5.8c0-3.8-3.1-6.8-6.8-6.8h-28.8c-3.8,0-6.8,3.1-6.8,6.8V52.1z"/>
<path class="st0" d="M273.1,29.5c9.5,0,17,7.6,17,17v30.9c0,2.9-2.2,5.1-5.1,5.1c-2.8,0-5-2.2-5-5.1V46.5c0-3.8-3.1-6.8-6.9-6.8h-31
	v37.7c0,2.9-2.4,5.1-5.1,5.1c-2.9,0-5.1-2.2-5.1-5.1V34.6c0-2.9,2.1-5,5-5.1H273.1z"/>
<path class="st0" d="M345.2,29.5c9.3,0,16.9,7.5,16.9,16.9v10.7c0,2.9-2.2,5.1-5.1,5.1h-47.5v3.4c0,3.7,3.1,6.8,6.8,6.8h38.9
	c2.6,0,5.1,2.1,5.1,5c0,2.9-2.4,5.1-5.1,5.1h-38.8c-9.4,0-16.9-7.5-16.9-16.9V46.4c0-9.4,7.5-16.9,16.9-16.9H345.2z M309.5,52.1H352
	v-5.8c0-3.8-3.1-6.8-6.8-6.8h-28.8c-3.8,0-6.8,3.1-6.8,6.8V52.1z"/>
<path class="st0" d="M413.5,29.5c9.2,0,16.5,7.4,16.5,16.5c0,2.9-2.2,5-5,5c-2.6,0-4.9-2.1-4.9-5c0-3.6-3.1-6.5-6.6-6.5h-25.1
	c-3.6,0-6.5,3-6.5,6.5v31.5c0,2.8-2.2,5-5,5s-5-2.2-5-5V46c0-9.1,7.4-16.5,16.5-16.5H413.5z"/>
<path class="st0" d="M447.2,109c-2.9,0-5.1-2.2-5.1-5.1c0-2.9,2.2-5.1,5.1-5.1h36.9c3.7,0,6.7-3.2,6.7-6.8v-9.5h-35.8
	c-9.4,0-17-7.5-17-17V46.6c0-9.5,7.6-17.1,17-17.1h29c9.4,0,17,7.6,17,17.1V92c0,9.4-7.6,17-17,17H447.2z M490.8,72.4V46.2
	c0-3.8-3.2-6.7-6.7-6.7h-29c-3.8,0-6.8,3.1-6.8,6.9v19c0,3.9,3.1,6.9,6.8,6.9H490.8z"/>
<path class="st0" d="M512.3,16.6c0-2.9,2.2-5.1,5.2-5.1c2.6,0,5.1,2.2,5.1,5.1v3.3c0,2.7-2.4,5.1-5.1,5.1c-3,0-5.2-2.3-5.2-5.1V16.6
	z M522.6,34.5v42.9c0,2.9-2.4,5.1-5.1,5.1c-3,0-5.2-2.2-5.2-5.1V34.5c0-2.7,2.2-5,5.2-5C520.1,29.5,522.6,31.8,522.6,34.5z"/>
<path class="st0" d="M578.6,29.5c9.3,0,16.7,7.4,16.7,16.7v19.6c0,9.3-7.4,16.7-16.6,16.7h-28.9c-9.3,0-16.7-7.5-16.7-16.7
	c0-9.4,7.5-16.8,16.8-16.8h35.4v-2.8c0-3.8-3.1-6.7-6.7-6.7h-40c-2.9,0-5.1-2.2-5.1-5c0-2.7,2.2-5,5.1-5H578.6z M549.8,72.4h28.9
	c3.7,0,6.6-3.1,6.6-6.6v-6.7h-35.4c-3.8,0-6.7,3.1-6.7,6.7C543.2,69.3,546.1,72.4,549.8,72.4z"/>
</svg>
